<svg xmlns="http://www.w3.org/2000/svg" xmlns:xlink="http://www.w3.org/1999/xlink" width="500" zoomAndPan="magnify" viewBox="0 0 375 374.999991" height="500" preserveAspectRatio="xMidYMid meet" version="1.0"><defs><g/><clipPath id="1545b7ef8b"><path d="M 236.234375 159.359375 L 288.746094 159.359375 L 288.746094 185.089844 L 236.234375 185.089844 Z M 236.234375 159.359375 " clip-rule="nonzero"/></clipPath><clipPath id="f7dc718383"><path d="M 269 157 L 287 157 L 287 169 L 269 169 Z M 269 157 " clip-rule="nonzero"/></clipPath><clipPath id="3f2991aee9"><path d="M 270.5625 155.714844 L 286.625 159.664062 L 284.242188 169.351562 L 268.179688 165.402344 Z M 270.5625 155.714844 " clip-rule="nonzero"/></clipPath><clipPath id="ed3e315a4e"><path d="M 270.5625 155.714844 L 286.625 159.664062 L 284.242188 169.351562 L 268.179688 165.402344 Z M 270.5625 155.714844 " clip-rule="nonzero"/></clipPath></defs><g fill="#ffffff" fill-opacity="1"><g transform="translate(8.418371, 187.627941)"><g><path d="M 29.765625 -51.28125 L 50.46875 0 L 37.921875 0 L 34.125 -10.25 L 14.609375 -10.25 L 10.8125 0 L -1.734375 0 L 18.953125 -51.28125 Z M 30.140625 -20.515625 L 24.421875 -35.421875 L 24.296875 -35.421875 L 18.578125 -20.515625 Z M 30.140625 -20.515625 "/></g></g></g><g fill="#ffffff" fill-opacity="1"><g transform="translate(54.040875, 187.627941)"><g><path d="M 3.734375 0 L 3.734375 -31.890625 L 14.734375 -31.890625 L 14.734375 -28.53125 L 14.859375 -28.53125 C 17.710938 -31.382812 20.757812 -32.8125 24 -32.8125 C 25.570312 -32.8125 27.132812 -32.601562 28.6875 -32.1875 C 30.238281 -31.78125 31.726562 -31.140625 33.15625 -30.265625 C 34.59375 -29.398438 35.753906 -28.164062 36.640625 -26.5625 C 37.535156 -24.96875 37.984375 -23.117188 37.984375 -21.015625 L 37.984375 0 L 26.96875 0 L 26.96875 -18.03125 C 26.96875 -19.6875 26.441406 -21.132812 25.390625 -22.375 C 24.335938 -23.613281 22.957031 -24.234375 21.25 -24.234375 C 19.59375 -24.234375 18.09375 -23.59375 16.75 -22.3125 C 15.40625 -21.03125 14.734375 -19.601562 14.734375 -18.03125 L 14.734375 0 Z M 3.734375 0 "/></g></g></g><g fill="#ffffff" fill-opacity="1"><g transform="translate(92.018154, 187.627941)"><g><path d="M 4.78125 -49.65625 C 6.070312 -50.945312 7.609375 -51.59375 9.390625 -51.59375 C 11.171875 -51.59375 12.703125 -50.945312 13.984375 -49.65625 C 15.265625 -48.375 15.90625 -46.84375 15.90625 -45.0625 C 15.90625 -43.28125 15.265625 -41.742188 13.984375 -40.453125 C 12.703125 -39.171875 11.171875 -38.53125 9.390625 -38.53125 C 7.609375 -38.53125 6.070312 -39.171875 4.78125 -40.453125 C 3.5 -41.742188 2.859375 -43.28125 2.859375 -45.0625 C 2.859375 -46.84375 3.5 -48.375 4.78125 -49.65625 Z M 3.734375 -31.890625 L 3.734375 0 L 14.734375 0 L 14.734375 -31.890625 Z M 3.734375 -31.890625 "/></g></g></g><g fill="#ffffff" fill-opacity="1"><g transform="translate(107.681349, 187.627941)"><g><path d="M 3.734375 0 L 3.734375 -31.890625 L 14.734375 -31.890625 L 14.734375 -28.53125 L 14.859375 -28.53125 C 17.710938 -31.382812 20.757812 -32.8125 24 -32.8125 C 26.3125 -32.8125 28.484375 -32.332031 30.515625 -31.375 C 32.546875 -30.425781 34.082031 -28.957031 35.125 -26.96875 C 38.351562 -30.863281 41.875 -32.8125 45.6875 -32.8125 C 49.082031 -32.8125 52 -31.859375 54.4375 -29.953125 C 56.882812 -28.046875 58.109375 -25.066406 58.109375 -21.015625 L 58.109375 0 L 47.109375 0 L 47.109375 -18.03125 C 47.109375 -19.726562 46.640625 -21.144531 45.703125 -22.28125 C 44.773438 -23.425781 43.378906 -24 41.515625 -24 C 39.898438 -24 38.664062 -23.507812 37.8125 -22.53125 C 36.96875 -21.5625 36.503906 -20.390625 36.421875 -19.015625 L 36.421875 0 L 25.421875 0 L 25.421875 -18.03125 C 25.421875 -19.726562 24.953125 -21.144531 24.015625 -22.28125 C 23.085938 -23.425781 21.691406 -24 19.828125 -24 C 18.128906 -24 16.851562 -23.46875 16 -22.40625 C 15.15625 -21.351562 14.734375 -20.097656 14.734375 -18.640625 L 14.734375 0 Z M 3.734375 0 "/></g></g></g><g fill="#ffffff" fill-opacity="1"><g transform="translate(165.797259, 187.627941)"><g><path d="M 35.984375 -14.421875 L 12.859375 -14.421875 C 12.859375 -12.179688 13.582031 -10.519531 15.03125 -9.4375 C 16.488281 -8.363281 18.066406 -7.828125 19.765625 -7.828125 C 21.546875 -7.828125 22.953125 -8.066406 23.984375 -8.546875 C 25.023438 -9.023438 26.207031 -9.96875 27.53125 -11.375 L 35.484375 -7.390625 C 32.171875 -1.835938 26.660156 0.9375 18.953125 0.9375 C 14.148438 0.9375 10.023438 -0.707031 6.578125 -4 C 3.140625 -7.300781 1.421875 -11.269531 1.421875 -15.90625 C 1.421875 -20.550781 3.140625 -24.53125 6.578125 -27.84375 C 10.023438 -31.15625 14.148438 -32.8125 18.953125 -32.8125 C 24.015625 -32.8125 28.128906 -31.347656 31.296875 -28.421875 C 34.460938 -25.503906 36.046875 -21.332031 36.046875 -15.90625 C 36.046875 -15.164062 36.023438 -14.671875 35.984375 -14.421875 Z M 13.171875 -20.515625 L 25.296875 -20.515625 C 25.046875 -22.171875 24.390625 -23.441406 23.328125 -24.328125 C 22.273438 -25.222656 20.921875 -25.671875 19.265625 -25.671875 C 17.441406 -25.671875 15.988281 -25.191406 14.90625 -24.234375 C 13.832031 -23.285156 13.253906 -22.046875 13.171875 -20.515625 Z M 13.171875 -20.515625 "/></g></g></g><g fill="#ffffff" fill-opacity="1"><g transform="translate(200.169472, 187.627941)"><g><path d="M 15.421875 -51.28125 L 15.421875 -10.25 L 33.0625 -10.25 L 33.0625 0 L 3.734375 0 L 3.734375 -51.28125 Z M 15.421875 -51.28125 "/></g></g></g><g fill="#008037" fill-opacity="1"><g transform="translate(232.176169, 187.627941)"><g/></g></g><g fill="#008037" fill-opacity="1"><g transform="translate(246.036823, 187.627941)"><g/></g></g><g fill="#008037" fill-opacity="1"><g transform="translate(259.897477, 187.627941)"><g/></g></g><g fill="#008037" fill-opacity="1"><g transform="translate(273.75813, 187.627941)"><g/></g></g><g fill="#008037" fill-opacity="1"><g transform="translate(287.617575, 187.627941)"><g><path d="M 3.734375 0 L 3.734375 -31.890625 L 14.734375 -31.890625 L 14.734375 -28.53125 L 14.859375 -28.53125 C 17.710938 -31.382812 20.757812 -32.8125 24 -32.8125 C 25.570312 -32.8125 27.132812 -32.601562 28.6875 -32.1875 C 30.238281 -31.78125 31.726562 -31.140625 33.15625 -30.265625 C 34.59375 -29.398438 35.753906 -28.164062 36.640625 -26.5625 C 37.535156 -24.96875 37.984375 -23.117188 37.984375 -21.015625 L 37.984375 0 L 26.96875 0 L 26.96875 -18.03125 C 26.96875 -19.6875 26.441406 -21.132812 25.390625 -22.375 C 24.335938 -23.613281 22.957031 -24.234375 21.25 -24.234375 C 19.59375 -24.234375 18.09375 -23.59375 16.75 -22.3125 C 15.40625 -21.03125 14.734375 -19.601562 14.734375 -18.03125 L 14.734375 0 Z M 3.734375 0 "/></g></g></g><g fill="#008037" fill-opacity="1"><g transform="translate(325.594854, 187.627941)"><g><path d="M 5.890625 -3.9375 C 2.910156 -7.195312 1.421875 -11.1875 1.421875 -15.90625 C 1.421875 -20.632812 2.910156 -24.632812 5.890625 -27.90625 C 8.878906 -31.175781 12.675781 -32.8125 17.28125 -32.8125 C 21.507812 -32.8125 24.988281 -31.488281 27.71875 -28.84375 L 27.71875 -53.453125 L 38.71875 -53.453125 L 38.71875 0 L 27.84375 0 L 27.84375 -3.609375 L 27.71875 -3.609375 C 24.988281 -0.578125 21.507812 0.9375 17.28125 0.9375 C 12.675781 0.9375 8.878906 -0.6875 5.890625 -3.9375 Z M 15.25 -21.3125 C 13.820312 -19.90625 13.109375 -18.101562 13.109375 -15.90625 C 13.109375 -13.71875 13.789062 -11.925781 15.15625 -10.53125 C 16.53125 -9.144531 18.335938 -8.453125 20.578125 -8.453125 C 22.734375 -8.453125 24.503906 -9.15625 25.890625 -10.5625 C 27.273438 -11.976562 27.96875 -13.757812 27.96875 -15.90625 C 27.96875 -18.101562 27.253906 -19.90625 25.828125 -21.3125 C 24.398438 -22.726562 22.648438 -23.4375 20.578125 -23.4375 C 18.460938 -23.4375 16.6875 -22.726562 15.25 -21.3125 Z M 15.25 -21.3125 "/></g></g></g><g clip-path="url(#1545b7ef8b)"><path fill="#008037" d="M 288.703125 185.085938 L 236.277344 185.085938 C 237.800781 182.828125 239.3125 180.523438 241.023438 178.445312 C 242.789062 176.300781 245.621094 175.550781 247.550781 173.335938 C 249.164062 171.484375 250.921875 169.433594 253.347656 169.054688 C 254.214844 168.917969 255.179688 168.992188 255.882812 168.46875 C 256.367188 168.109375 256.632812 167.535156 256.890625 166.988281 C 258.089844 164.460938 259.585938 162.078125 261.335938 159.894531 C 261.472656 159.726562 261.621094 159.550781 261.820312 159.457031 C 262.046875 159.351562 262.3125 159.375 262.558594 159.410156 C 264.746094 159.734375 266.324219 161.074219 267.542969 162.835938 C 268.988281 164.925781 270.65625 166.683594 272.496094 168.464844 C 274.789062 170.6875 277.46875 172.363281 279.589844 174.746094 C 282.382812 177.878906 285.171875 181.015625 287.960938 184.148438 C 288.226562 184.445312 288.496094 184.75 288.703125 185.085938 Z M 288.703125 185.085938 " fill-opacity="1" fill-rule="nonzero"/></g><g clip-path="url(#f7dc718383)"><g clip-path="url(#3f2991aee9)"><g clip-path="url(#ed3e315a4e)"><path fill="#000000" d="M 285.75 160.46875 C 285.921875 160.621094 286.152344 160.710938 286.300781 160.898438 C 285.960938 160.769531 285.617188 160.632812 285.273438 160.515625 C 283.46875 159.902344 281.773438 160.160156 280.171875 161.128906 C 280 161.238281 279.910156 161.210938 279.84375 161.027344 C 279.792969 160.882812 279.722656 160.746094 279.660156 160.601562 C 278.761719 158.617188 277.199219 157.492188 275.054688 157.082031 C 275.410156 157.015625 276.097656 157.078125 276.699219 157.238281 C 278.210938 157.640625 279.390625 158.496094 280.242188 159.800781 C 280.347656 159.960938 280.425781 159.980469 280.605469 159.921875 C 282.320312 159.347656 283.980469 159.496094 285.570312 160.378906 C 285.632812 160.40625 285.691406 160.433594 285.75 160.46875 Z M 286.316406 160.902344 L 286.300781 160.898438 L 286.308594 160.902344 Z M 277.683594 162.808594 L 277.683594 162.800781 Z M 277.085938 162.535156 C 275.820312 162.128906 274.617188 162.261719 273.476562 162.917969 C 273.359375 162.988281 273.296875 162.984375 273.199219 162.886719 C 272.402344 162.074219 271.4375 161.632812 270.296875 161.554688 C 269.84375 161.527344 269.34375 161.578125 269.097656 161.675781 C 270.6875 161.664062 271.964844 162.246094 272.898438 163.539062 C 272.960938 163.632812 273.03125 163.71875 273.089844 163.816406 C 273.164062 163.9375 273.230469 163.941406 273.339844 163.839844 C 274.339844 162.921875 275.515625 162.492188 276.890625 162.675781 C 277.15625 162.710938 277.417969 162.761719 277.683594 162.800781 C 277.546875 162.6875 277.371094 162.660156 277.226562 162.574219 C 277.175781 162.558594 277.132812 162.550781 277.085938 162.535156 Z M 282.242188 167.789062 C 281.578125 167.496094 280.917969 167.492188 280.253906 167.78125 C 280.183594 167.808594 280.15625 167.804688 280.105469 167.742188 C 279.742188 167.265625 279.207031 166.945312 278.609375 166.847656 C 278.363281 166.804688 278.089844 166.804688 277.953125 166.84375 C 278.816406 166.929688 279.476562 167.328125 279.90625 168.082031 C 279.933594 168.136719 279.964844 168.1875 279.992188 168.246094 C 280.023438 168.316406 280.0625 168.320312 280.128906 168.273438 C 280.730469 167.832031 281.394531 167.671875 282.128906 167.851562 C 282.273438 167.886719 282.414062 167.929688 282.554688 167.964844 C 282.488281 167.894531 282.394531 167.871094 282.320312 167.8125 C 282.289062 167.808594 282.265625 167.800781 282.242188 167.789062 Z M 282.550781 167.976562 L 282.546875 167.972656 Z M 282.550781 167.976562 " fill-opacity="1" fill-rule="nonzero"/></g></g></g></svg>