<svg xmlns="http://www.w3.org/2000/svg" xmlns:xlink="http://www.w3.org/1999/xlink" width="6000" zoomAndPan="magnify" viewBox="0 0 375 374.999991" height="6000" preserveAspectRatio="xMidYMid meet" version="1.0"><defs><clipPath id="653e239161"><path d="M 124.5 151.863281 L 274.5 151.863281 L 274.5 225.363281 L 124.5 225.363281 Z M 124.5 151.863281 " clip-rule="nonzero"/></clipPath><clipPath id="f55f5da719"><path d="M 218 145 L 268 145 L 268 178 L 218 178 Z M 218 145 " clip-rule="nonzero"/></clipPath><clipPath id="d5525bb79f"><path d="M 222.558594 141.453125 L 268.441406 152.734375 L 261.632812 180.410156 L 215.75 169.128906 Z M 222.558594 141.453125 " clip-rule="nonzero"/></clipPath><clipPath id="9f2da642a0"><path d="M 222.558594 141.453125 L 268.441406 152.734375 L 261.632812 180.410156 L 215.75 169.128906 Z M 222.558594 141.453125 " clip-rule="nonzero"/></clipPath></defs><g clip-path="url(#653e239161)"><path fill="#008037" d="M 274.382812 225.347656 L 124.617188 225.347656 C 128.976562 218.902344 133.289062 212.324219 138.179688 206.386719 C 143.222656 200.261719 151.308594 198.117188 156.824219 191.789062 C 161.4375 186.5 166.453125 180.640625 173.382812 179.558594 C 175.863281 179.171875 178.613281 179.382812 180.632812 177.882812 C 182.011719 176.859375 182.765625 175.214844 183.503906 173.65625 C 186.933594 166.441406 191.207031 159.625 196.203125 153.398438 C 196.597656 152.90625 197.015625 152.40625 197.585938 152.144531 C 198.238281 151.847656 198.988281 151.90625 199.699219 152.011719 C 205.949219 152.9375 210.457031 156.757812 213.9375 161.789062 C 218.0625 167.761719 222.828125 172.78125 228.089844 177.878906 C 234.636719 184.226562 242.285156 189.007812 248.347656 195.816406 C 256.324219 204.769531 264.296875 213.722656 272.265625 222.671875 C 273.019531 223.519531 273.785156 224.394531 274.382812 225.347656 Z M 274.382812 225.347656 " fill-opacity="1" fill-rule="nonzero"/></g><g clip-path="url(#f55f5da719)"><g clip-path="url(#d5525bb79f)"><g clip-path="url(#9f2da642a0)"><path fill="#000000" d="M 265.945312 155.027344 C 266.4375 155.472656 267.09375 155.722656 267.523438 156.257812 C 266.542969 155.886719 265.570312 155.503906 264.582031 155.171875 C 259.429688 153.414062 254.589844 154.148438 250.007812 156.921875 C 249.515625 157.226562 249.261719 157.152344 249.078125 156.628906 C 248.929688 156.21875 248.726562 155.820312 248.554688 155.414062 C 245.980469 149.746094 241.515625 146.527344 235.398438 145.359375 C 236.410156 145.167969 238.375 145.34375 240.089844 145.800781 C 244.410156 146.957031 247.777344 149.398438 250.210938 153.125 C 250.515625 153.585938 250.738281 153.640625 251.25 153.46875 C 256.152344 151.832031 260.890625 152.246094 265.4375 154.773438 C 265.609375 154.855469 265.773438 154.933594 265.945312 155.027344 Z M 267.5625 156.265625 L 267.523438 156.257812 L 267.546875 156.273438 Z M 242.90625 161.710938 L 242.898438 161.699219 Z M 241.195312 160.929688 C 237.582031 159.769531 234.148438 160.152344 230.882812 162.023438 C 230.546875 162.226562 230.375 162.222656 230.09375 161.933594 C 227.820312 159.617188 225.0625 158.359375 221.804688 158.136719 C 220.507812 158.050781 219.074219 158.203125 218.378906 158.484375 C 222.914062 158.449219 226.566406 160.109375 229.230469 163.800781 C 229.414062 164.066406 229.613281 164.320312 229.78125 164.59375 C 229.992188 164.945312 230.1875 164.953125 230.492188 164.667969 C 233.355469 162.039062 236.710938 160.808594 240.640625 161.335938 C 241.398438 161.433594 242.144531 161.578125 242.898438 161.699219 C 242.511719 161.371094 242.003906 161.296875 241.597656 161.042969 C 241.453125 161.003906 241.328125 160.976562 241.195312 160.929688 Z M 255.925781 175.945312 C 254.03125 175.105469 252.140625 175.09375 250.242188 175.917969 C 250.042969 175.996094 249.964844 175.992188 249.824219 175.816406 C 248.777344 174.445312 247.257812 173.53125 245.550781 173.253906 C 244.847656 173.132812 244.066406 173.132812 243.671875 173.242188 C 246.144531 173.488281 248.03125 174.625 249.246094 176.785156 C 249.328125 176.933594 249.421875 177.085938 249.5 177.246094 C 249.59375 177.449219 249.695312 177.460938 249.882812 177.328125 C 251.601562 176.070312 253.503906 175.609375 255.605469 176.125 C 256.011719 176.226562 256.414062 176.347656 256.816406 176.449219 C 256.632812 176.25 256.363281 176.183594 256.144531 176.011719 C 256.054688 176.003906 255.996094 175.976562 255.925781 175.945312 Z M 256.8125 176.472656 L 256.800781 176.46875 Z M 256.8125 176.472656 " fill-opacity="1" fill-rule="nonzero"/></g></g></g></svg>